<svg width="131" height="31" viewBox="0 0 131 31" fill="none" xmlns="http://www.w3.org/2000/svg">
<path d="M7.056 12.634C8.24667 10.8353 9.678 9.936 11.35 9.936C13.934 9.936 15.8593 11.038 17.126 13.242C17.4047 12.862 17.734 12.4693 18.114 12.064C18.5193 11.6333 19.1527 11.1773 20.014 10.696C20.8753 10.1893 21.762 9.936 22.674 9.936C24.7007 9.936 26.398 10.7213 27.766 12.292C29.134 13.8373 29.818 16.4087 29.818 20.006V26.656C29.818 27.2387 29.7927 27.682 29.742 27.986C29.7167 28.2647 29.6027 28.594 29.4 28.974C29.0707 29.658 28.0953 30 26.474 30C24.878 30 23.9027 29.6453 23.548 28.936C23.3707 28.556 23.2567 28.2267 23.206 27.948C23.1807 27.644 23.168 27.2007 23.168 26.618V19.968C23.168 17.764 22.3827 16.662 20.812 16.662C19.9253 16.662 19.3173 16.9533 18.988 17.536C18.684 18.1187 18.532 18.942 18.532 20.006V26.656C18.532 27.264 18.5067 27.7073 18.456 27.986C18.4307 28.2647 18.3167 28.594 18.114 28.974C17.7593 29.658 16.7713 30 15.15 30C13.554 30 12.5787 29.6453 12.224 28.936C12.0467 28.556 11.9327 28.2267 11.882 27.948C11.8567 27.644 11.844 27.2007 11.844 26.618V19.968C11.844 17.764 11.0587 16.662 9.488 16.662C7.968 16.662 7.208 17.764 7.208 19.968V26.694C7.208 27.2767 7.18267 27.72 7.132 28.024C7.10667 28.3027 6.99267 28.632 6.79 29.012C6.41 29.6707 5.422 30 3.826 30C2.23 30 1.25467 29.658 0.9 28.974C0.722667 28.594 0.608667 28.2647 0.558 27.986C0.532667 27.7073 0.52 27.264 0.52 26.656V13.28C0.52 12.6973 0.532667 12.2667 0.558 11.988C0.608667 11.684 0.735333 11.3547 0.938 11C1.318 10.316 2.21733 9.974 3.636 9.974C5.05467 9.974 5.97933 10.202 6.41 10.658C6.84067 11.114 7.056 11.7727 7.056 12.634ZM30.3723 20.006C30.3723 16.966 31.4363 14.458 33.5643 12.482C35.6923 10.506 38.1243 9.518 40.8603 9.518C43.5963 9.518 46.0156 10.506 48.1183 12.482C50.2209 14.4327 51.2723 16.928 51.2723 19.968C51.2723 22.0707 50.7276 23.9453 49.6383 25.592C48.5489 27.2133 47.2189 28.4167 45.6483 29.202C44.1029 29.962 42.4943 30.342 40.8223 30.342C39.1503 30.342 37.5289 29.9367 35.9583 29.126C34.3876 28.29 33.0576 27.074 31.9683 25.478C30.9043 23.8567 30.3723 22.0327 30.3723 20.006ZM38.3143 22.742C39.1249 23.35 39.9483 23.654 40.7843 23.654C41.6203 23.654 42.4563 23.3373 43.2923 22.704C44.1283 22.0707 44.5463 21.1333 44.5463 19.892C44.5463 18.6507 44.1536 17.726 43.3683 17.118C42.5829 16.51 41.7343 16.206 40.8223 16.206C39.9103 16.206 39.0616 16.5227 38.2763 17.156C37.4909 17.7893 37.0983 18.7267 37.0983 19.968C37.0983 21.184 37.5036 22.1087 38.3143 22.742ZM65.2414 1.652C65.4441 1.272 65.7861 1.006 66.2674 0.853999C66.7488 0.701998 67.3821 0.625998 68.1674 0.625998C68.9781 0.625998 69.6241 0.701998 70.1054 0.853999C70.5868 1.006 70.9161 1.272 71.0934 1.652C71.2961 2.032 71.4101 2.374 71.4354 2.678C71.4861 2.95667 71.5114 3.38733 71.5114 3.97V26.656C71.5114 27.2387 71.4861 27.682 71.4354 27.986C71.4101 28.2647 71.2961 28.5813 71.0934 28.936C70.7134 29.62 69.6368 29.962 67.8634 29.962C66.1154 29.962 65.1401 29.3413 64.9374 28.1C63.8734 29.316 62.3914 29.924 60.4914 29.924C58.2114 29.924 56.1341 28.936 54.2594 26.96C52.3848 24.9587 51.4474 22.6407 51.4474 20.006C51.4474 17.346 52.3848 15.0153 54.2594 13.014C56.1594 11.0127 58.2368 10.012 60.4914 10.012C62.3661 10.012 63.8228 10.6453 64.8614 11.912V3.932C64.8614 3.34933 64.8741 2.91867 64.8994 2.64C64.9501 2.336 65.0641 2.00666 65.2414 1.652ZM59.0854 22.286C59.7441 22.97 60.5421 23.312 61.4794 23.312C62.4168 23.312 63.1894 22.97 63.7974 22.286C64.4308 21.602 64.7474 20.8547 64.7474 20.044C64.7474 19.208 64.4434 18.4353 63.8354 17.726C63.2528 17.0167 62.4548 16.662 61.4414 16.662C60.4281 16.662 59.6174 17.0167 59.0094 17.726C58.4014 18.41 58.0974 19.17 58.0974 20.006C58.0974 20.842 58.4268 21.602 59.0854 22.286ZM72.0684 20.006C72.0684 16.966 73.1324 14.458 75.2604 12.482C77.3884 10.506 79.8204 9.518 82.5564 9.518C85.2924 9.518 87.7117 10.506 89.8144 12.482C91.917 14.4327 92.9684 16.928 92.9684 19.968C92.9684 22.0707 92.4237 23.9453 91.3344 25.592C90.245 27.2133 88.915 28.4167 87.3444 29.202C85.799 29.962 84.1904 30.342 82.5184 30.342C80.8464 30.342 79.225 29.9367 77.6544 29.126C76.0837 28.29 74.7537 27.074 73.6644 25.478C72.6004 23.8567 72.0684 22.0327 72.0684 20.006ZM80.0104 22.742C80.821 23.35 81.6444 23.654 82.4804 23.654C83.3164 23.654 84.1524 23.3373 84.9884 22.704C85.8244 22.0707 86.2424 21.1333 86.2424 19.892C86.2424 18.6507 85.8497 17.726 85.0644 17.118C84.279 16.51 83.4304 16.206 82.5184 16.206C81.6064 16.206 80.7577 16.5227 79.9724 17.156C79.187 17.7893 78.7944 18.7267 78.7944 19.968C78.7944 21.184 79.1997 22.1087 80.0104 22.742ZM105.304 19.968L110.358 24.148C110.991 24.68 111.384 25.0853 111.536 25.364C111.713 25.6427 111.802 25.9087 111.802 26.162C111.802 26.77 111.409 27.5933 110.624 28.632C109.762 29.696 109.002 30.228 108.344 30.228C107.786 30.228 107.014 29.8607 106.026 29.126L105.646 28.86C105.063 28.3787 104.164 27.5427 102.948 26.352C101.732 25.136 100.807 24.2747 100.174 23.768V26.694C100.174 27.2767 100.148 27.72 100.098 28.024C100.072 28.3027 99.9582 28.632 99.7555 29.012C99.4262 29.6707 98.4509 30 96.8295 30C95.2335 30 94.2582 29.658 93.9035 28.974C93.7262 28.594 93.6122 28.2647 93.5615 27.986C93.5362 27.682 93.5235 27.2387 93.5235 26.656V3.894C93.5235 3.31133 93.5362 2.88067 93.5615 2.602C93.6122 2.298 93.7262 1.956 93.9035 1.576C94.2582 0.891999 95.2462 0.549999 96.8675 0.549999C98.0835 0.549999 98.9449 0.765332 99.4515 1.196C99.8822 1.55067 100.11 2.108 100.136 2.868C100.161 3.096 100.174 3.45066 100.174 3.932V15.978C100.63 15.598 101.314 14.952 102.226 14.04C103.163 13.128 103.86 12.482 104.316 12.102L104.772 11.798C105.658 11.114 106.418 10.772 107.052 10.772C107.685 10.772 108.407 11.2913 109.218 12.33C110.054 13.3433 110.472 14.1413 110.472 14.724C110.472 15.3067 110.003 15.9907 109.066 16.776L105.304 19.968ZM130.15 17.612C130.15 19.1573 129.758 20.31 128.972 21.07C128.212 21.8047 127.364 22.172 126.426 22.172H117.42C117.42 22.8813 117.838 23.4767 118.674 23.958C119.51 24.4393 120.346 24.68 121.182 24.68C122.652 24.68 123.804 24.528 124.64 24.224L125.058 24.072C125.666 23.7933 126.173 23.654 126.578 23.654C127.389 23.654 128.086 24.224 128.668 25.364C128.998 26.048 129.162 26.6307 129.162 27.112C129.162 29.3667 126.464 30.494 121.068 30.494C119.194 30.494 117.522 30.1773 116.052 29.544C114.608 28.8853 113.481 28.024 112.67 26.96C111.074 24.908 110.276 22.6153 110.276 20.082C110.276 16.89 111.302 14.344 113.354 12.444C115.432 10.5187 118.016 9.556 121.106 9.556C124.628 9.556 127.212 10.7973 128.858 13.28C129.72 14.5973 130.15 16.0413 130.15 17.612ZM122.132 18.714C123.095 18.714 123.576 18.3087 123.576 17.498C123.576 16.9153 123.348 16.4467 122.892 16.092C122.462 15.7373 121.828 15.56 120.992 15.56C120.182 15.56 119.371 15.902 118.56 16.586C117.75 17.2447 117.344 17.954 117.344 18.714H122.132Z" fill="#005840"/>
</svg>
