<svg width="508" height="119" viewBox="0 0 508 119" fill="none" xmlns="http://www.w3.org/2000/svg">
<path d="M25.8 47.7C30.5 40.6 36.15 37.05 42.75 37.05C52.95 37.05 60.55 41.4 65.55 50.1C66.65 48.6 67.95 47.05 69.45 45.45C71.05 43.75 73.55 41.95 76.95 40.05C80.35 38.05 83.85 37.05 87.45 37.05C95.45 37.05 102.15 40.15 107.55 46.35C112.95 52.45 115.65 62.6 115.65 76.8V103.05C115.65 105.35 115.55 107.1 115.35 108.3C115.25 109.4 114.8 110.7 114 112.2C112.7 114.9 108.85 116.25 102.45 116.25C96.15 116.25 92.3 114.85 90.9 112.05C90.2 110.55 89.75 109.25 89.55 108.15C89.45 106.95 89.4 105.2 89.4 102.9V76.65C89.4 67.95 86.3 63.6 80.1 63.6C76.6 63.6 74.2 64.75 72.9 67.05C71.7 69.35 71.1 72.6 71.1 76.8V103.05C71.1 105.45 71 107.2 70.8 108.3C70.7 109.4 70.25 110.7 69.45 112.2C68.05 114.9 64.15 116.25 57.75 116.25C51.45 116.25 47.6 114.85 46.2 112.05C45.5 110.55 45.05 109.25 44.85 108.15C44.75 106.95 44.7 105.2 44.7 102.9V76.65C44.7 67.95 41.6 63.6 35.4 63.6C29.4 63.6 26.4 67.95 26.4 76.65V103.2C26.4 105.5 26.3 107.25 26.1 108.45C26 109.55 25.55 110.85 24.75 112.35C23.25 114.95 19.35 116.25 13.05 116.25C6.75 116.25 2.9 114.9 1.5 112.2C0.8 110.7 0.35 109.4 0.15 108.3C0.0499999 107.2 0 105.45 0 103.05V50.25C0 47.95 0.0499999 46.25 0.15 45.15C0.35 43.95 0.85 42.65 1.65 41.25C3.15 38.55 6.7 37.2 12.3 37.2C17.9 37.2 21.55 38.1 23.25 39.9C24.95 41.7 25.8 44.3 25.8 47.7Z" fill="#2EA690"/>
<path d="M116.338 76.8C116.338 64.8 120.538 54.9 128.938 47.1C137.338 39.3 146.938 35.4 157.738 35.4C168.538 35.4 178.088 39.3 186.388 47.1C194.688 54.8 198.838 64.65 198.838 76.65C198.838 84.95 196.688 92.35 192.388 98.85C188.088 105.25 182.838 110 176.638 113.1C170.538 116.1 164.188 117.6 157.588 117.6C150.988 117.6 144.588 116 138.388 112.8C132.188 109.5 126.938 104.7 122.638 98.4C118.438 92 116.338 84.8 116.338 76.8ZM147.688 87.6C150.888 90 154.138 91.2 157.438 91.2C160.738 91.2 164.038 89.95 167.338 87.45C170.638 84.95 172.288 81.25 172.288 76.35C172.288 71.45 170.738 67.8 167.638 65.4C164.538 63 161.188 61.8 157.588 61.8C153.988 61.8 150.638 63.05 147.538 65.55C144.438 68.05 142.888 71.75 142.888 76.65C142.888 81.45 144.488 85.1 147.688 87.6Z" fill="#2EA690"/>
<path d="M253.479 4.35C254.279 2.85 255.629 1.8 257.529 1.2C259.429 0.599998 261.929 0.299996 265.029 0.299996C268.229 0.299996 270.779 0.599998 272.679 1.2C274.579 1.8 275.879 2.85 276.579 4.35C277.379 5.85 277.829 7.2 277.929 8.4C278.129 9.5 278.229 11.2 278.229 13.5V103.05C278.229 105.35 278.129 107.1 277.929 108.3C277.829 109.4 277.379 110.65 276.579 112.05C275.079 114.75 270.829 116.1 263.829 116.1C256.929 116.1 253.079 113.65 252.279 108.75C248.079 113.55 242.229 115.95 234.729 115.95C225.729 115.95 217.529 112.05 210.129 104.25C202.729 96.35 199.029 87.2 199.029 76.8C199.029 66.3 202.729 57.1 210.129 49.2C217.629 41.3 225.829 37.35 234.729 37.35C242.129 37.35 247.879 39.85 251.979 44.85V13.35C251.979 11.05 252.029 9.35 252.129 8.25C252.329 7.05 252.779 5.75 253.479 4.35ZM229.179 85.8C231.779 88.5 234.929 89.85 238.629 89.85C242.329 89.85 245.379 88.5 247.779 85.8C250.279 83.1 251.529 80.15 251.529 76.95C251.529 73.65 250.329 70.6 247.929 67.8C245.629 65 242.479 63.6 238.479 63.6C234.479 63.6 231.279 65 228.879 67.8C226.479 70.5 225.279 73.5 225.279 76.8C225.279 80.1 226.579 83.1 229.179 85.8Z" fill="#2EA690"/>
<path d="M278.928 76.8C278.928 64.8 283.128 54.9 291.528 47.1C299.928 39.3 309.528 35.4 320.328 35.4C331.128 35.4 340.678 39.3 348.978 47.1C357.278 54.8 361.428 64.65 361.428 76.65C361.428 84.95 359.278 92.35 354.978 98.85C350.678 105.25 345.428 110 339.228 113.1C333.128 116.1 326.778 117.6 320.178 117.6C313.578 117.6 307.178 116 300.978 112.8C294.778 109.5 289.528 104.7 285.228 98.4C281.028 92 278.928 84.8 278.928 76.8ZM310.278 87.6C313.478 90 316.728 91.2 320.028 91.2C323.328 91.2 326.628 89.95 329.928 87.45C333.228 84.95 334.878 81.25 334.878 76.35C334.878 71.45 333.328 67.8 330.228 65.4C327.128 63 323.778 61.8 320.178 61.8C316.578 61.8 313.228 63.05 310.128 65.55C307.028 68.05 305.478 71.75 305.478 76.65C305.478 81.45 307.078 85.1 310.278 87.6Z" fill="#2EA690"/>
<path d="M408.619 76.65L428.569 93.15C431.069 95.25 432.619 96.85 433.219 97.95C433.919 99.05 434.269 100.1 434.269 101.1C434.269 103.5 432.719 106.75 429.619 110.85C426.219 115.05 423.219 117.15 420.619 117.15C418.419 117.15 415.369 115.7 411.469 112.8L409.969 111.75C407.669 109.85 404.119 106.55 399.319 101.85C394.519 97.05 390.869 93.65 388.369 91.65V103.2C388.369 105.5 388.269 107.25 388.069 108.45C387.969 109.55 387.519 110.85 386.719 112.35C385.419 114.95 381.569 116.25 375.169 116.25C368.869 116.25 365.019 114.9 363.619 112.2C362.919 110.7 362.469 109.4 362.269 108.3C362.169 107.1 362.119 105.35 362.119 103.05V13.2C362.119 10.9 362.169 9.2 362.269 8.1C362.469 6.9 362.919 5.55 363.619 4.05C365.019 1.35 368.919 0 375.319 0C380.119 0 383.519 0.850001 385.519 2.55C387.219 3.95 388.119 6.15 388.219 9.15C388.319 10.05 388.369 11.45 388.369 13.35V60.9C390.169 59.4 392.869 56.85 396.469 53.25C400.169 49.65 402.919 47.1 404.719 45.6L406.519 44.4C410.019 41.7 413.019 40.35 415.519 40.35C418.019 40.35 420.869 42.4 424.069 46.5C427.369 50.5 429.019 53.65 429.019 55.95C429.019 58.25 427.169 60.95 423.469 64.05L408.619 76.65Z" fill="#2EA690"/>
<path d="M507.198 67.35C507.198 73.45 505.648 78 502.548 81C499.548 83.9 496.198 85.35 492.498 85.35H456.948C456.948 88.15 458.598 90.5 461.898 92.4C465.198 94.3 468.498 95.25 471.798 95.25C477.598 95.25 482.148 94.65 485.448 93.45L487.098 92.85C489.498 91.75 491.498 91.2 493.098 91.2C496.298 91.2 499.048 93.45 501.348 97.95C502.648 100.65 503.298 102.95 503.298 104.85C503.298 113.75 492.648 118.2 471.348 118.2C463.948 118.2 457.348 116.95 451.548 114.45C445.848 111.85 441.398 108.45 438.198 104.25C431.898 96.15 428.748 87.1 428.748 77.1C428.748 64.5 432.798 54.45 440.898 46.95C449.098 39.35 459.298 35.55 471.498 35.55C485.398 35.55 495.598 40.45 502.098 50.25C505.498 55.45 507.198 61.15 507.198 67.35ZM475.548 71.7C479.348 71.7 481.248 70.1 481.248 66.9C481.248 64.6 480.348 62.75 478.548 61.35C476.848 59.95 474.348 59.25 471.048 59.25C467.848 59.25 464.648 60.6 461.448 63.3C458.248 65.9 456.648 68.7 456.648 71.7H475.548Z" fill="#2EA690"/>
</svg>
